<mxfile host="app.diagrams.net" modified="2022-05-16T08:35:47.301Z" agent="5.0 (Macintosh; Intel Mac OS X 10_15_7) AppleWebKit/537.36 (KHTML, like Gecko) Chrome/101.0.4951.64 Safari/537.36" etag="CeohK6GZjR1AlGhpPt8Q" version="18.0.5" type="github" pages="2">
  <diagram id="-Te3peYq7g-sy-9JVavY" name="Page-1">
    <mxGraphModel dx="1426" dy="1040" grid="1" gridSize="10" guides="1" tooltips="1" connect="1" arrows="1" fold="1" page="1" pageScale="1" pageWidth="850" pageHeight="1100" math="0" shadow="0">
      <root>
        <mxCell id="0" />
        <mxCell id="1" parent="0" />
        <mxCell id="7UljVsRdRgy-RmQaWY9A-3" style="edgeStyle=orthogonalEdgeStyle;rounded=0;orthogonalLoop=1;jettySize=auto;html=1;exitX=0.5;exitY=1;exitDx=0;exitDy=0;entryX=0.5;entryY=0;entryDx=0;entryDy=0;" edge="1" parent="1" source="7UljVsRdRgy-RmQaWY9A-1" target="7UljVsRdRgy-RmQaWY9A-2">
          <mxGeometry relative="1" as="geometry" />
        </mxCell>
        <mxCell id="7UljVsRdRgy-RmQaWY9A-1" value="year" style="rounded=1;whiteSpace=wrap;html=1;fillColor=#dae8fc;strokeColor=#6c8ebf;" vertex="1" parent="1">
          <mxGeometry x="315" y="120" width="120" height="40" as="geometry" />
        </mxCell>
        <mxCell id="7UljVsRdRgy-RmQaWY9A-35" style="edgeStyle=orthogonalEdgeStyle;rounded=0;orthogonalLoop=1;jettySize=auto;html=1;" edge="1" parent="1" source="7UljVsRdRgy-RmQaWY9A-2" target="7UljVsRdRgy-RmQaWY9A-4">
          <mxGeometry relative="1" as="geometry" />
        </mxCell>
        <mxCell id="7UljVsRdRgy-RmQaWY9A-37" style="edgeStyle=orthogonalEdgeStyle;rounded=0;orthogonalLoop=1;jettySize=auto;html=1;entryX=0.5;entryY=0;entryDx=0;entryDy=0;" edge="1" parent="1" source="7UljVsRdRgy-RmQaWY9A-2" target="7UljVsRdRgy-RmQaWY9A-12">
          <mxGeometry relative="1" as="geometry" />
        </mxCell>
        <mxCell id="7UljVsRdRgy-RmQaWY9A-2" value="&lt;span style=&quot;color: rgb(102, 102, 102); font-family: Metropolis, &amp;quot;Avenir Next&amp;quot;, &amp;quot;Helvetica Neue&amp;quot;, Arial, sans-serif; font-size: 14px; text-align: start; background-color: rgb(250, 250, 250);&quot;&gt;evenly divisible by 4 ?&lt;/span&gt;" style="rhombus;whiteSpace=wrap;html=1;fillColor=#fff2cc;strokeColor=#d6b656;" vertex="1" parent="1">
          <mxGeometry x="287.5" y="200" width="175" height="100" as="geometry" />
        </mxCell>
        <mxCell id="7UljVsRdRgy-RmQaWY9A-4" value="not leap" style="rounded=1;whiteSpace=wrap;html=1;fillColor=#f8cecc;strokeColor=#b85450;" vertex="1" parent="1">
          <mxGeometry x="110" y="670" width="130" height="70" as="geometry" />
        </mxCell>
        <mxCell id="7UljVsRdRgy-RmQaWY9A-43" style="edgeStyle=orthogonalEdgeStyle;rounded=0;orthogonalLoop=1;jettySize=auto;html=1;entryX=0.5;entryY=0;entryDx=0;entryDy=0;" edge="1" parent="1" source="7UljVsRdRgy-RmQaWY9A-12" target="7UljVsRdRgy-RmQaWY9A-20">
          <mxGeometry relative="1" as="geometry" />
        </mxCell>
        <mxCell id="7UljVsRdRgy-RmQaWY9A-50" style="edgeStyle=orthogonalEdgeStyle;rounded=0;orthogonalLoop=1;jettySize=auto;html=1;" edge="1" parent="1" source="7UljVsRdRgy-RmQaWY9A-12" target="7UljVsRdRgy-RmQaWY9A-27">
          <mxGeometry relative="1" as="geometry" />
        </mxCell>
        <mxCell id="7UljVsRdRgy-RmQaWY9A-12" value="&lt;span style=&quot;color: rgb(102, 102, 102); font-family: Metropolis, &amp;quot;Avenir Next&amp;quot;, &amp;quot;Helvetica Neue&amp;quot;, Arial, sans-serif; font-size: 14px; text-align: start; background-color: rgb(250, 250, 250);&quot;&gt;&amp;nbsp;evenly divisible by 100?&lt;/span&gt;" style="rhombus;whiteSpace=wrap;html=1;fillColor=#fff2cc;strokeColor=#d6b656;" vertex="1" parent="1">
          <mxGeometry x="275" y="360" width="200" height="100" as="geometry" />
        </mxCell>
        <mxCell id="7UljVsRdRgy-RmQaWY9A-44" style="edgeStyle=orthogonalEdgeStyle;rounded=0;orthogonalLoop=1;jettySize=auto;html=1;entryX=0.858;entryY=0;entryDx=0;entryDy=0;entryPerimeter=0;" edge="1" parent="1" source="7UljVsRdRgy-RmQaWY9A-20" target="7UljVsRdRgy-RmQaWY9A-4">
          <mxGeometry relative="1" as="geometry" />
        </mxCell>
        <mxCell id="7UljVsRdRgy-RmQaWY9A-49" style="edgeStyle=orthogonalEdgeStyle;rounded=0;orthogonalLoop=1;jettySize=auto;html=1;entryX=0;entryY=0.5;entryDx=0;entryDy=0;" edge="1" parent="1" source="7UljVsRdRgy-RmQaWY9A-20" target="7UljVsRdRgy-RmQaWY9A-27">
          <mxGeometry relative="1" as="geometry" />
        </mxCell>
        <mxCell id="7UljVsRdRgy-RmQaWY9A-20" value="&lt;span style=&quot;color: rgb(102, 102, 102); font-family: Metropolis, &amp;quot;Avenir Next&amp;quot;, &amp;quot;Helvetica Neue&amp;quot;, Arial, sans-serif; font-size: 14px; text-align: start; background-color: rgb(250, 250, 250);&quot;&gt;evenly divisible by 400?&lt;/span&gt;" style="rhombus;whiteSpace=wrap;html=1;fillColor=#fff2cc;strokeColor=#d6b656;" vertex="1" parent="1">
          <mxGeometry x="260" y="530" width="230" height="80" as="geometry" />
        </mxCell>
        <mxCell id="7UljVsRdRgy-RmQaWY9A-27" value="leap" style="rounded=1;whiteSpace=wrap;html=1;fillColor=#d5e8d4;strokeColor=#82b366;" vertex="1" parent="1">
          <mxGeometry x="530" y="660" width="160" height="70" as="geometry" />
        </mxCell>
        <mxCell id="7UljVsRdRgy-RmQaWY9A-36" value="no" style="text;html=1;align=center;verticalAlign=middle;resizable=0;points=[];autosize=1;strokeColor=none;fillColor=none;" vertex="1" parent="1">
          <mxGeometry x="235" y="260" width="30" height="20" as="geometry" />
        </mxCell>
        <mxCell id="7UljVsRdRgy-RmQaWY9A-38" value="yes" style="text;html=1;align=center;verticalAlign=middle;resizable=0;points=[];autosize=1;strokeColor=none;fillColor=none;" vertex="1" parent="1">
          <mxGeometry x="380" y="320" width="30" height="20" as="geometry" />
        </mxCell>
        <mxCell id="7UljVsRdRgy-RmQaWY9A-40" value="yes" style="text;html=1;align=center;verticalAlign=middle;resizable=0;points=[];autosize=1;strokeColor=none;fillColor=none;" vertex="1" parent="1">
          <mxGeometry x="380" y="480" width="30" height="20" as="geometry" />
        </mxCell>
        <mxCell id="7UljVsRdRgy-RmQaWY9A-42" value="no" style="text;html=1;align=center;verticalAlign=middle;resizable=0;points=[];autosize=1;strokeColor=none;fillColor=none;" vertex="1" parent="1">
          <mxGeometry x="490" y="410" width="30" height="20" as="geometry" />
        </mxCell>
        <mxCell id="7UljVsRdRgy-RmQaWY9A-45" value="no" style="text;html=1;align=center;verticalAlign=middle;resizable=0;points=[];autosize=1;strokeColor=none;fillColor=none;" vertex="1" parent="1">
          <mxGeometry x="220" y="600" width="30" height="20" as="geometry" />
        </mxCell>
        <mxCell id="7UljVsRdRgy-RmQaWY9A-47" value="yes" style="text;html=1;align=center;verticalAlign=middle;resizable=0;points=[];autosize=1;strokeColor=none;fillColor=none;" vertex="1" parent="1">
          <mxGeometry x="475" y="600" width="30" height="20" as="geometry" />
        </mxCell>
      </root>
    </mxGraphModel>
  </diagram>
  <diagram id="fX0WP2kZ1O_ftQY2yD1F" name="Page-2">
    <mxGraphModel dx="1426" dy="1040" grid="1" gridSize="10" guides="1" tooltips="1" connect="1" arrows="1" fold="1" page="1" pageScale="1" pageWidth="850" pageHeight="1100" math="0" shadow="0">
      <root>
        <mxCell id="0" />
        <mxCell id="1" parent="0" />
      </root>
    </mxGraphModel>
  </diagram>
</mxfile>
